<?xml version="1.0" encoding="utf-8"?>
<!-- Generator: Adobe Illustrator 23.0.2, SVG Export Plug-In . SVG Version: 6.00 Build 0)  -->
<svg version="1.1" id="Слой_1" xmlns="http://www.w3.org/2000/svg" xmlns:xlink="http://www.w3.org/1999/xlink" x="0px" y="0px"
	 width="64px" height="64px" viewBox="0 0 64 64" style="enable-background:new 0 0 64 64;" xml:space="preserve">
<style type="text/css">
	.st0{fill:#00BC8C;}
</style>
<path class="st0" d="M61.96,30.93c-0.07-1.83-0.27-3.63-0.65-5.37H49.14v-2.15h4.29v-2.15h-8.59v-2.15h6.44v-2.15h-2.15v-2.15h-4.29
	v-2.15h2.15v-2.15H42.7V8.39h2.15V6.24V4.88c-3.91-1.86-8.26-2.93-12.88-2.93c-16.24,0-29.43,12.88-30,28.98H61.96z M21.23,8.39
	c4.74,0,8.59,3.85,8.59,8.59c0,4.74-3.85,8.59-8.59,8.59c-4.74,0-8.59-3.84-8.59-8.59C12.64,12.23,16.49,8.39,21.23,8.39"/>
<path class="st0" d="M38.4,59.91h-2.15v-2.15h6.44v-2.15h2.15v-2.15h6.44v-2.15h2.15v-2.15h-4.29v-2.15H42.7v-2.15h4.29v-2.15h8.59
	v-2.15h-4.29v-2.15h10.03c0.38-1.74,0.59-3.53,0.65-5.37h-60c0.57,16.1,13.76,28.98,30,28.98c2.21,0,4.37-0.26,6.44-0.71V59.91z"/>
</svg>
